<svg xmlns="http://www.w3.org/2000/svg" width="256" height="256" viewBox="0 0 256 256"><path d="M137.4 153.6h18v11.34h-18zm-15.2 0h11.5v11.34h-11.5zm-21.6 0h18v11.34h-18zm58.4 0h11.5v11.34H159zm-73.5 0H97v11.34H85.5z"/><path d="M128 18.4L33.1 73.2v109.6l94.9 54.8 94.9-54.8V73.2zm56.9 133.4a1.7 1.7 0 0 1-1.8 1.8h-9v11.3h9a1.8 1.8 0 1 1 0 3.6H72.9a1.8 1.8 0 0 1 0-3.6h9v-11.3h-9a1.7 1.7 0 0 1-1.8-1.8v-35.5a1.7 1.7 0 0 1 1.8-1.8h11.9c.9-25.6 20-39.6 43.2-39.6s42.3 14 43.2 39.6h11.9a1.7 1.7 0 0 1 1.8 1.8z"/><path d="M74.7 150h106.6v-31.9H74.7zm52.4-12.3H171a1.8 1.8 0 0 1 0 3.6h-43.9a1.8 1.8 0 1 1 0-3.6zm.9-59.2c-21.1 0-38.7 12.8-39.6 36h79.2c-.9-23.2-18.5-36-39.6-36z"/></svg>